<svg xmlns="http://www.w3.org/2000/svg" fill="none" viewBox="0 0 310 294">
  <path fill="#EFD9AC" d="M160 287.5c81.2 0 147-7.6 147-17s-65.8-17-147-17-147 7.6-147 17 65.8 17 147 17Z"/>
  <path fill="#997C4F" d="M251.6 260.3c-7.5 0-13.7 5.6-14.6 12.9h29.2c-1-7.3-7.1-12.9-14.6-12.9Z"/>
  <path fill="#B57015" d="M74.5 247.7H31a2.6 2.6 0 1 0 0 5.2h43.4a2.6 2.6 0 1 0 0-5.2Z"/>
  <path fill="#B57015" d="M56.3 210.8c-.2-.5-.7-.9-1.3-.9h-5c-.6 0-1.1.4-1.3 1l-14 40h36.2l-14.6-40Z"/>
  <path fill="#ECEFF1" d="m46 218.3-2.1 6.3h17.4l-2.3-6.3H46Zm-5.6 16.1-2.2 6.3h29l-2.3-6.3H40.4ZM270.2 61h-13.6v212.4h13.6V61Z"/>
  <path fill="#939CA6" d="M270.2 61h-4.6v212.4h4.6V61Z"/>
  <path fill="#CE9C52" d="M73.8 111.5h-8.5a1 1 0 0 1-1-1c0-3.7-3.1-6.7-6.8-6.7-2 0-3.8.8-5 2.2a1 1 0 0 1-1.8-.6c-.5-5.6-5.1-9.9-10.8-9.9A11 11 0 0 0 29 106.1a1 1 0 0 1-1.9.5 9.2 9.2 0 0 0-8.3-5.3c-5 0-9.3 4.2-9.3 9.2 0 .6-.5 1-1 1H1a1 1 0 0 1 0-2h6.6a11.3 11.3 0 0 1 19.8-6.2A13 13 0 0 1 40 93.5c6 0 11.2 4.1 12.5 9.9a8.8 8.8 0 0 1 13.8 6.1h7.6a1 1 0 0 1 0 2Z"/>
  <path fill="#997C4F" d="M71.6 255.7c-7.5 0-13.7 5.6-14.6 12.8h29.2c-1-7.2-7.1-12.8-14.6-12.8Z"/>
  <path fill="#ECEFF1" d="M69.4 61H55.8v212.4h13.6V61Z"/>
  <path fill="#939CA6" d="M69.4 61h-4.6v212.4h4.6V61Z"/>
  <path fill="#ECEFF1" d="M287.8 70.5H40v120.2h247.8V70.5Z"/>
  <path fill="#484F58" d="M117.6 124.5v-12.2h4.2c1 0 1.7.2 2.3.5.6.3 1 .8 1.3 1.4a4.3 4.3 0 0 1 0 3.9c-.2.6-.7 1-1.3 1.4-.6.3-1.4.5-2.3.5h-3v-1.3h3c.6 0 1.1-.1 1.5-.3.4-.3.7-.6.9-1l.2-1.3c0-.4 0-.9-.2-1.3a2 2 0 0 0-.9-.9c-.4-.2-1-.3-1.6-.3h-2.6v10.9h-1.5Zm10 0H126l4.4-12.2h1.6l4.4 12.2H135l-3.6-10.3h-.1l-3.7 10.3Zm.5-4.8h6.2v1.3h-6.2v-1.3Zm18-3.6-.5-1a3.3 3.3 0 0 0-1.8-1.4 4 4 0 0 0-3.2.4c-.6.3-1 .9-1.4 1.6-.3.7-.5 1.6-.5 2.7 0 1 .2 2 .5 2.6a3.8 3.8 0 0 0 3.5 2.2 3.2 3.2 0 0 0 3-1.7 4 4 0 0 0 .5-2l.5.2H143v-1.3h4.7v1.3c0 1-.2 1.9-.7 2.6-.4.7-1 1.3-1.7 1.7-.8.4-1.6.6-2.6.6s-2-.2-2.8-.7a5.1 5.1 0 0 1-2-2.2c-.4-1-.6-2-.6-3.3 0-1 .1-1.9.4-2.6.2-.8.6-1.5 1-2a4.8 4.8 0 0 1 4-1.7 5.4 5.4 0 0 1 3.2 1.1 4.6 4.6 0 0 1 1.7 2.9h-1.5Zm4 8.4v-12.2h7.4v1.3h-5.8v4.1h5.5v1.3h-5.5v4.2h6v1.3h-7.5Zm22.8-12.2h1.5v8a4.1 4.1 0 0 1-2.2 3.8c-.8.4-1.6.6-2.6.6s-1.8-.2-2.5-.6c-.7-.4-1.2-.9-1.6-1.5-.4-.7-.6-1.4-.6-2.3v-8h1.5v8c0 .5.1 1 .4 1.5.2.5.6.8 1 1.1a4 4 0 0 0 1.8.4c.7 0 1.3-.1 1.8-.4.5-.3.8-.6 1-1 .4-.6.5-1 .5-1.7v-8Zm14 0v12.2h-1.4l-6.6-9.6h-.1v9.6h-1.5v-12.2h1.4l6.7 9.6h.1v-9.6h1.5Zm6.8 12.2h-3.8v-12.2h4a6 6 0 0 1 3 .7c.8.5 1.4 1.2 1.9 2.1a8 8 0 0 1 0 6.5c-.5 1-1.1 1.6-2 2.1-.9.5-2 .8-3.1.8Zm-2.3-1.3h2.2c1 0 1.8-.2 2.5-.6a4 4 0 0 0 1.4-1.7c.4-.7.5-1.6.5-2.6s-.1-1.8-.5-2.5c-.3-.7-.8-1.2-1.4-1.6-.6-.4-1.4-.6-2.4-.6h-2.3v9.6Zm10.5 1.3v-12.2h7.4v1.3h-5.9v4.1h5.5v1.3h-5.5v4.2h6v1.3h-7.5Zm10 0v-12.2h4.1c1 0 1.8.2 2.4.5.6.3 1 .7 1.3 1.3.3.6.5 1.2.5 2a4 4 0 0 1-.5 1.8c-.3.6-.7 1-1.3 1.3a5 5 0 0 1-2.3.5h-3.4v-1.3h3.3c.7 0 1.2-.1 1.6-.3.4-.2.7-.5.9-.8l.2-1.3c0-.5 0-.9-.2-1.3a2 2 0 0 0-1-.8c-.3-.2-.8-.3-1.5-.3h-2.6v10.9h-1.5Zm5.8-5.5 3 5.5h-1.8l-3-5.5h1.8Zm-99.1 19H117a3 3 0 0 0-1.2-1.9l-1-.5a4 4 0 0 0-3.2.4c-.6.4-1 1-1.4 1.7-.4.7-.6 1.6-.6 2.6s.2 2 .6 2.7c.3.7.8 1.3 1.4 1.6.6.4 1.2.6 2 .6.4 0 .8 0 1.1-.2.4 0 .8-.2 1-.5a3.1 3.1 0 0 0 1.3-1.9h1.5a4.6 4.6 0 0 1-3.2 3.7 5.5 5.5 0 0 1-4.5-.5 5.2 5.2 0 0 1-1.9-2.1c-.5-1-.7-2-.7-3.4a7 7 0 0 1 .7-3.3c.5-1 1.1-1.6 2-2.2.7-.5 1.6-.7 2.7-.7.6 0 1.2 0 1.7.3a4.7 4.7 0 0 1 2.6 2c.3.5.5 1 .6 1.7Zm12.6 2.3c0 1.3-.2 2.4-.7 3.4-.4.9-1 1.6-1.9 2.1a5.1 5.1 0 0 1-7.4-2.2c-.5-.9-.7-2-.7-3.3a7 7 0 0 1 .7-3.3c.4-1 1-1.6 1.9-2.2a5 5 0 0 1 2.8-.7 5.1 5.1 0 0 1 4.6 3c.5.8.7 2 .7 3.2Zm-1.4 0c0-1-.2-2-.5-2.6a4 4 0 0 0-1.4-1.7c-.6-.4-1.3-.5-2-.5-.8 0-1.4.1-2 .5a5 5 0 0 0-1.5 1.7 7.2 7.2 0 0 0 0 5.3c.4.7.9 1.3 1.5 1.6.6.4 1.2.6 2 .6a3.7 3.7 0 0 0 3.4-2.2 6 6 0 0 0 .5-2.7Zm13.6-6v12.1h-1.5l-6.6-9.5h-.1v9.5h-1.5v-12.2h1.4l6.7 9.6h.1v-9.6h1.5Zm9.6 3c-.1-.6-.4-1-.9-1.4-.5-.3-1.1-.5-1.9-.5-.5 0-1 0-1.4.3-.4.1-.7.4-1 .7a1.7 1.7 0 0 0 0 1.8c.1.3.3.5.6.6l.8.4.7.2 1.2.4 1 .3 1.2.6 1 1c.1.4.3.8.3 1.4 0 .7-.2 1.3-.6 1.8-.3.5-.8 1-1.5 1.3-.6.3-1.4.4-2.3.4a5 5 0 0 1-2.3-.4c-.6-.3-1.1-.7-1.5-1.2-.4-.5-.6-1-.6-1.7h1.5c0 .4.2.8.5 1.1.2.3.6.5 1 .7a4.2 4.2 0 0 0 2.9 0c.4-.3.8-.5 1-.8.3-.4.4-.8.4-1.2 0-.4 0-.7-.3-1a2 2 0 0 0-.9-.6l-1.2-.4-1.5-.5a5 5 0 0 1-2.3-1.1c-.5-.5-.8-1.2-.8-2 0-.7.2-1.3.6-1.8.3-.5.8-1 1.5-1.2a5 5 0 0 1 2-.4 5 5 0 0 1 2.2.4c.6.3 1 .7 1.4 1.1.4.5.6 1 .6 1.7H153Zm3.3-1.7v-1.3h9.1v1.3h-3.8v10.8h-1.5v-10.8h-3.8Zm11.4 10.8v-12.2h4.1c1 0 1.8.2 2.4.5.6.4 1 .8 1.3 1.4.3.5.5 1.2.5 1.9a4 4 0 0 1-.5 1.9c-.3.5-.7 1-1.3 1.3a5 5 0 0 1-2.3.5h-3.4v-1.4h3.3c.7 0 1.2 0 1.6-.3.4-.1.7-.4.8-.8.2-.3.3-.7.3-1.2s0-1-.3-1.3c-.1-.4-.4-.6-.8-.8-.4-.2-1-.3-1.6-.3h-2.6v10.8h-1.5Zm5.7-5.4 3 5.4h-1.7l-3-5.4h1.7Zm13-6.8h1.5v8.1a4.1 4.1 0 0 1-2.2 3.8c-.8.3-1.6.5-2.6.5s-1.7-.2-2.4-.5c-.8-.4-1.3-1-1.7-1.6a4 4 0 0 1-.6-2.2v-8h1.5v7.9c0 .6.1 1.1.4 1.6.2.4.6.8 1.1 1 .5.3 1 .5 1.7.5s1.3-.2 1.8-.4c.5-.3.9-.7 1.1-1.1.3-.5.4-1 .4-1.6v-8Zm14.2 3.9h-1.5a3 3 0 0 0-1.2-2l-1-.5a4 4 0 0 0-1.2-.1c-.7 0-1.4.1-2 .5-.6.4-1 1-1.4 1.7-.4.7-.5 1.6-.5 2.6s.1 2 .5 2.7c.3.7.8 1.3 1.4 1.6.6.4 1.3.6 2 .6.4 0 .8 0 1.2-.2.4 0 .7-.2 1-.5a3.1 3.1 0 0 0 1.2-1.9h1.5a4.5 4.5 0 0 1-3.2 3.7 5.5 5.5 0 0 1-4.5-.5 5.2 5.2 0 0 1-1.9-2.1 8.6 8.6 0 0 1 0-6.7c.5-1 1.1-1.6 2-2.2a5 5 0 0 1 2.7-.7c.6 0 1.2 0 1.7.3a4.7 4.7 0 0 1 2.6 2c.3.5.5 1 .6 1.7Zm1.7-2.5v-1.3h9.2v1.3h-3.9v10.8h-1.4v-10.8h-3.9Zm13-1.3v12.1h-1.6v-12.2h1.5Zm13.1 6c0 1.3-.2 2.4-.7 3.4-.4.9-1 1.6-1.9 2.1a5.1 5.1 0 0 1-7.4-2.2c-.5-.9-.7-2-.7-3.3a7 7 0 0 1 .7-3.3c.4-1 1-1.6 1.9-2.2a5 5 0 0 1 2.8-.7 5.1 5.1 0 0 1 4.6 3c.5.8.7 2 .7 3.2Zm-1.4 0c0-1-.2-2-.5-2.6a4 4 0 0 0-1.4-1.7c-.6-.4-1.3-.5-2-.5-.8 0-1.4.1-2 .5a5 5 0 0 0-1.5 1.7 7.2 7.2 0 0 0 0 5.3c.4.7.9 1.3 1.5 1.6.6.4 1.2.6 2 .6a3.7 3.7 0 0 0 3.4-2.2 6 6 0 0 0 .5-2.7Zm13.6-6v12.1H239l-6.6-9.5h-.1v9.5h-1.5v-12.2h1.4l6.7 9.6h.1v-9.6h1.5Z"/>
  <path fill="#CE861D" d="M124 283.1H72.3a3 3 0 0 0 0 6.2H124a3 3 0 0 0 0-6.2Z"/>
  <path fill="#CE861D" d="M102.3 239.2c-.2-.7-.8-1.1-1.5-1.1h-6c-.7 0-1.3.4-1.6 1.1L76.6 287h43.1l-17.4-47.7Z"/>
  <path fill="#ECEFF1" d="m90.2 248-2.7 7.6h20.8l-2.7-7.5H90.2Zm-6.8 19.3-2.6 7.5h34.5l-2.7-7.5H83.4Z"/>
  <path fill="#CE861D" d="m199 287.7 28-43.4a3 3 0 1 0-5.1-3.4l-28 43.5a3 3 0 1 0 5.2 3.3Z"/>
  <path fill="#CE861D" d="M247.8 293.3c.6.2 1.4-.1 1.7-.7l3.2-5c.4-.6.4-1.4 0-2l-31.1-39.8-23.4 36.3 49.6 11.2Z"/>
  <path fill="#ECEFF1" d="m246.9 278.3-5-6.3-11.2 17.5 7.9 1.7 8.3-13Zm-12.5-16.1-5-6.3-18.6 29 7.8 1.8 15.8-24.5Z"/>
  <path fill="#CE861D" d="M287.8 70.5H40v18.4h247.8V70.5Z"/>
  <path fill="#ECEFF1" d="M47.4 70.5 40 80.8V89h7l13.3-18.4H47.4ZM73.5 89l13.3-18.5H73.9L60.7 88.9h12.8Zm26.5 0 13.3-18.5h-13L87.2 88.9h13Zm26.5 0 13.3-18.5h-13l-13.2 18.4h13Zm26.5 0 13.3-18.5h-13l-13.2 18.4h13Zm26.5 0 13.2-18.5H180l-13.3 18.4h12.9Zm26.5 0 13.2-18.5h-12.8L193 88.9h13Zm26.5 0 13.2-18.5H233l-13.3 18.4h12.9Zm26.5 0 13.2-18.5h-12.8L246 88.9h13Zm26.5 0 2.3-3.4V70.5h-2l-13.2 18.4h12.9Z"/>
  <path fill="#CE861D" d="M287.8 172.6H40v18.5h247.8v-18.5Z"/>
  <path fill="#ECEFF1" d="M47.4 172.6 40 183v8h7l13.3-18.4H47.4ZM73.5 191l13.3-18.4H73.9l-13.2 18.5h12.8Zm26.5 0 13.3-18.4h-13l-13.2 18.5h13Zm26.5 0 13.3-18.4h-13l-13.2 18.5h13Zm26.5 0 13.3-18.4h-13l-13.2 18.5h13Zm26.5 0 13.2-18.4H180l-13.3 18.5h12.9Zm26.5 0 13.2-18.4h-12.8L193 191.1h13Zm26.5 0 13.2-18.4H233l-13.3 18.5h12.9Zm26.5 0 13.2-18.4h-12.8L246 191.1h13Zm26.5 0 2.3-3.2v-15.2h-2l-13.2 18.5h12.9Z"/>
  <path fill="#939CA6" d="M288.3 70.5h-4.9V191h4.9V70.5Z"/>
  <path fill="#C4B290" d="M56 260.5c-9.3 0-17 7-18.2 16h36.4c-1.2-9-8.9-16-18.2-16Zm209.3 6c-9.3 0-17 7-18.1 16h36.3c-1.1-9-8.8-16-18.2-16Z"/>
  <path fill="#C4B290" d="M37 263.7c-7.6 0-13.7 5.6-14.7 12.8h29.2c-1-7.2-7-12.8-14.6-12.8Z"/>
  <path fill="#CE9C52" d="M249.8 55.5h-27.5a1 1 0 0 1-1-1 9.3 9.3 0 0 0-17.7-3.9 1 1 0 0 1-1.9-.5A11 11 0 0 0 191 39.5c-5.7 0-10.3 4.3-10.8 10a1 1 0 0 1-1.8.5 6.9 6.9 0 0 0-5-2.2c-3.7 0-6.8 3-6.8 6.7 0 .6-.5 1-1 1H157a1 1 0 0 1 0-2h7.5a8.9 8.9 0 0 1 13.9-6.1c1.3-5.8 6.4-9.9 12.5-9.9 6 0 11 4.2 12.5 9.8a11.3 11.3 0 0 1 19.8 6.2h26.6a1 1 0 0 1 0 2Zm-109.4-30h-21.3a1 1 0 0 1-1-1c0-7.7-6.4-14-14.1-14a14 14 0 0 0-12.7 8 1 1 0 0 1-1.9-.5 16.4 16.4 0 0 0-32.7-1 1 1 0 0 1-1.7.5c-2-2.1-4.8-3.4-7.7-3.4-5.7 0-10.4 4.7-10.5 10.4 0 .5-.5 1-1 1H23.3a1 1 0 0 1 0-2h11.5A12.5 12.5 0 0 1 55 14.8 18.3 18.3 0 0 1 73 0c9 0 16.5 6.5 18.1 15a16 16 0 0 1 28.9 8.5h20.4a1 1 0 1 1 0 2Z"/>
  <path fill="#F9CE6E" d="M289 44a33 33 0 0 0-44.1 15.3l-.2.3 59.5 28.8.1-.4A33 33 0 0 0 289 44Z"/>
  <path fill="#EAAC3D" d="m295.8 41.2-9-4.4a7.2 7.2 0 0 0-9.8 4L266.3 70l16.3 8 16.2-26.5c2.3-3.7.9-8.5-3-10.3Z"/>
  <path fill="#EAAC3D" d="m307.5 87.5-64.2-31a3.6 3.6 0 1 0-3 6.4l64 31a3.6 3.6 0 1 0 3.2-6.4Z"/>
</svg>


